<?xml version="1.0" encoding="UTF-8" standalone="no"?><!DOCTYPE svg PUBLIC "-//W3C//DTD SVG 1.1//EN" "http://www.w3.org/Graphics/SVG/1.1/DTD/svg11.dtd"><svg width="100%" height="100%" viewBox="0 0 1725 1078" version="1.1" xmlns="http://www.w3.org/2000/svg" xmlns:xlink="http://www.w3.org/1999/xlink" xml:space="preserve" style="fill-rule:evenodd;clip-rule:evenodd;stroke-linecap:round;stroke-linejoin:round;"><g id="md-hero-bg"><path id="Oval-2" d="M1588.09,404.933c5.42,0 9.813,-4.394 9.813,-9.814c0,-5.42 -4.393,-9.813 -9.813,-9.813c-5.42,0 -9.814,4.393 -9.814,9.813" style="fill:none;stroke:#e3e3e3;stroke-width:5.39px;"/><path id="Oval-21" d="M576.169,897.587c-5.236,-1.403 -10.617,1.704 -12.02,6.939c-1.402,5.235 1.704,10.617 6.94,12.019c5.235,1.403 10.616,-1.704 12.019,-6.939" style="fill:none;stroke:#e3e3e3;stroke-width:5.39px;"/><path id="Oval-22" d="M460.46,609.711c5.42,0 9.813,-4.394 9.813,-9.814c0,-5.42 -4.393,-9.814 -9.813,-9.814c-5.42,0 -9.814,4.394 -9.814,9.814" style="fill:none;stroke:#e3e3e3;stroke-width:5.39px;"/><path id="Oval-23" d="M1607.33,746.744c0,-5.42 -4.394,-9.813 -9.814,-9.813c-5.42,0 -9.814,4.393 -9.814,9.813" style="fill:none;stroke:#e3e3e3;stroke-width:5.39px;"/><path id="Triangle" d="M605.926,275.632l-21.905,-1.315l9.814,-16.998" style="fill:none;stroke:#e3e3e3;stroke-width:5.39px;"/><path id="Triangle1" d="M1358.12,126.639l-1.315,21.905l-16.997,-9.814" style="fill:none;stroke:#e3e3e3;stroke-width:5.39px;"/><path id="Triangle2" d="M354.412,697.28l-19.627,0l9.813,-19.627" style="fill:none;stroke:#e3e3e3;stroke-width:5.39px;"/><path id="Polygon-2" d="M313.67,373.181l11.219,6.477l0,12.954l-11.219,6.477l-11.219,-6.477" style="fill:none;stroke:#e3e3e3;stroke-width:5.39px;"/><path id="Polygon-21" d="M573.901,718.187l-3.352,-12.513l9.16,-9.16l12.512,3.353l3.353,12.512" style="fill:none;stroke:#e3e3e3;stroke-width:5.39px;"/><path id="Polygon-22" d="M171.082,126.639l-3.353,-12.513l9.16,-9.16l12.513,3.353l3.353,12.513" style="fill:none;stroke:#e3e3e3;stroke-width:5.39px;"/></g></svg>