<?xml version="1.0" encoding="UTF-8" standalone="no"?>
<svg width="1133px" height="682px" viewBox="0 0 1133 682" version="1.1" xmlns="http://www.w3.org/2000/svg" xmlns:xlink="http://www.w3.org/1999/xlink">
    <!-- Generator: Sketch 39.1 (31720) - http://www.bohemiancoding.com/sketch -->
    <title>md-hero-bg</title>
    <desc>Created with Sketch.</desc>
    <defs/>
    <g id="Page-1" stroke="none" stroke-width="1" fill="none" fill-rule="evenodd" stroke-linecap="round" stroke-linejoin="round">
        <g id="md-hero-bg" stroke="#E3E3E3" stroke-width="4">
            <g transform="translate(51.000000, 18.000000)">
                <path d="M949.284408,160.568815 C953.307475,160.568815 956.568815,157.307475 956.568815,153.284408 C956.568815,149.26134 953.307475,146 949.284408,146 C945.26134,146 942,149.26134 942,153.284408" id="Oval-2"/>
                <path d="M613.171559,563.250018 C609.285574,562.208772 605.291265,564.514888 604.250018,568.400872 C603.208772,572.286857 605.514888,576.281167 609.400872,577.322413 C613.286857,578.363659 617.281167,576.057543 618.322413,572.171559" id="Oval-2"/>
                <path d="M217.284408,375.568815 C221.307475,375.568815 224.568815,372.307475 224.568815,368.284408 C224.568815,364.26134 221.307475,361 217.284408,361 C213.26134,361 210,364.26134 210,368.284408" id="Oval-2"/>
                <path d="M963.568815,414.284408 C963.568815,410.26134 960.307475,407 956.284408,407 C952.26134,407 949,410.26134 949,414.284408" id="Oval-2"/>
                <polyline id="Triangle" points="325.259168 127.59289 309 126.616964 316.284408 114"/>
                <polyline id="Triangle" points="571.59289 121 570.616964 137.259168 558 129.97476"/>
                <polyline id="Triangle" points="448.568815 414.568815 434 414.568815 441.284408 400"/>
                <polyline id="Polygon-2" points="108.327196 200 116.654393 204.807709 116.654393 214.423127 108.327196 219.230836 100 214.423127"/>
                <polyline id="Polygon-2" points="611.488653 430.086908 609 420.799127 615.799127 414 625.086908 416.488653 627.575561 425.776434"/>
                <polyline id="Polygon-2" points="2.48865331 17 -3.83693077e-13 7.71221941 6.79912728 0.913092135 16.0869079 3.40174544 18.5755612 12.689526"/>
            </g>
        </g>
    </g>
</svg>